<svg width="176" height="88" viewBox="0 0 176 88" fill="none" xmlns="http://www.w3.org/2000/svg">
<path d="M30.0484 47.4653C30.0484 47.4653 31.3064 47.0385 31.4924 45.2679C31.5255 44.9379 31.5973 44.6204 31.6884 44.3209C31.6765 44.3235 31.6698 44.3261 31.6571 44.3304L27.9774 46.0645L30.0484 47.4653V47.4653ZM35.8502 40.2279C35.1849 40.3305 34.3706 40.5175 33.3676 40.8232C33.3023 40.8403 33.2364 40.866 33.1706 40.8914L32.4726 41.1127C32.34 41.1554 32.218 41.2061 32.0863 41.2486C32.0863 41.2486 31.116 41.5205 29.8009 41.5633C28.9541 41.5971 27.9598 41.5374 26.9898 41.2317C24.5395 40.475 23.0523 38.7914 19.9053 40.628L25.3884 44.3197L26.4406 43.9229C24.4221 45.2104 22.3196 46.7436 19.8469 45.8401C17.8662 45.0921 17.2 45.9343 17.2 45.9343C18.3352 46.7112 19.4136 47.5077 20.578 48.2C23.5098 47.1445 26.4793 45.9306 29.4143 44.8459L33.2531 43.4258C33.2781 43.4179 33.3025 43.4085 33.3272 43.4L35.5133 42.5921L36.6232 42.1926C38.4313 41.6738 39.2773 39.7182 35.8503 40.2279H35.8502Z" fill="#E74B70"/>
<path d="M55.932 46.316L54.312 41.528C54.192 41.224 54.064 40.868 53.928 40.46C53.792 40.044 53.656 39.596 53.52 39.116C53.4 39.604 53.272 40.056 53.136 40.472C53 40.888 52.872 41.248 52.752 41.552L51.144 46.316H55.932ZM62.376 53H59.232C58.88 53 58.596 52.92 58.38 52.76C58.164 52.592 58 52.38 57.888 52.124L56.856 49.076H50.208L49.176 52.124C49.088 52.348 48.928 52.552 48.696 52.736C48.472 52.912 48.192 53 47.856 53H44.688L51.456 35.516H55.608L62.376 53ZM79.6185 44.252C79.6185 45.516 79.3985 46.684 78.9585 47.756C78.5265 48.82 77.9145 49.744 77.1225 50.528C76.3305 51.304 75.3745 51.912 74.2545 52.352C73.1425 52.784 71.9065 53 70.5465 53H63.7545V35.516H70.5465C71.9065 35.516 73.1425 35.736 74.2545 36.176C75.3745 36.616 76.3305 37.224 77.1225 38C77.9145 38.776 78.5265 39.7 78.9585 40.772C79.3985 41.836 79.6185 42.996 79.6185 44.252ZM75.4665 44.252C75.4665 43.388 75.3545 42.608 75.1305 41.912C74.9065 41.216 74.5825 40.628 74.1585 40.148C73.7425 39.66 73.2305 39.288 72.6225 39.032C72.0145 38.768 71.3225 38.636 70.5465 38.636H67.8345V49.88H70.5465C71.3225 49.88 72.0145 49.752 72.6225 49.496C73.2305 49.232 73.7425 48.86 74.1585 48.38C74.5825 47.892 74.9065 47.3 75.1305 46.604C75.3545 45.908 75.4665 45.124 75.4665 44.252ZM90.6429 46.316L89.0229 41.528C88.9029 41.224 88.7749 40.868 88.6389 40.46C88.5029 40.044 88.3669 39.596 88.2309 39.116C88.1109 39.604 87.9829 40.056 87.8469 40.472C87.7109 40.888 87.5829 41.248 87.4629 41.552L85.8549 46.316H90.6429ZM97.0869 53H93.9429C93.5909 53 93.3069 52.92 93.0909 52.76C92.8749 52.592 92.7109 52.38 92.5989 52.124L91.5669 49.076H84.9189L83.8869 52.124C83.7989 52.348 83.6389 52.552 83.4069 52.736C83.1829 52.912 82.9029 53 82.5669 53H79.3989L86.1669 35.516H90.3189L97.0869 53Z" fill="white"/>
<path d="M113.052 38.3H107.82V53H104.592V38.3H99.36V35.648H113.052V38.3ZM115.237 42.824C115.621 42.088 116.077 41.512 116.605 41.096C117.133 40.672 117.757 40.46 118.477 40.46C119.045 40.46 119.501 40.584 119.845 40.832L119.653 43.052C119.613 43.196 119.553 43.3 119.473 43.364C119.401 43.42 119.301 43.448 119.173 43.448C119.053 43.448 118.873 43.428 118.633 43.388C118.401 43.348 118.173 43.328 117.949 43.328C117.621 43.328 117.329 43.376 117.073 43.472C116.817 43.568 116.585 43.708 116.377 43.892C116.177 44.068 115.997 44.284 115.837 44.54C115.685 44.796 115.541 45.088 115.405 45.416V53H112.441V40.688H114.181C114.485 40.688 114.697 40.744 114.817 40.856C114.937 40.96 115.017 41.152 115.057 41.432L115.237 42.824ZM127.734 47.744C126.878 47.784 126.158 47.86 125.574 47.972C124.99 48.076 124.522 48.212 124.17 48.38C123.818 48.548 123.566 48.744 123.414 48.968C123.262 49.192 123.186 49.436 123.186 49.7C123.186 50.22 123.338 50.592 123.642 50.816C123.954 51.04 124.358 51.152 124.854 51.152C125.462 51.152 125.986 51.044 126.426 50.828C126.874 50.604 127.31 50.268 127.734 49.82V47.744ZM120.942 42.404C122.358 41.108 124.062 40.46 126.054 40.46C126.774 40.46 127.418 40.58 127.986 40.82C128.554 41.052 129.034 41.38 129.426 41.804C129.818 42.22 130.114 42.72 130.314 43.304C130.522 43.888 130.626 44.528 130.626 45.224V53H129.282C129.002 53 128.786 52.96 128.634 52.88C128.482 52.792 128.362 52.62 128.274 52.364L128.01 51.476C127.698 51.756 127.394 52.004 127.098 52.22C126.802 52.428 126.494 52.604 126.174 52.748C125.854 52.892 125.51 53 125.142 53.072C124.782 53.152 124.382 53.192 123.942 53.192C123.422 53.192 122.942 53.124 122.502 52.988C122.062 52.844 121.682 52.632 121.362 52.352C121.042 52.072 120.794 51.724 120.618 51.308C120.442 50.892 120.354 50.408 120.354 49.856C120.354 49.544 120.406 49.236 120.51 48.932C120.614 48.62 120.782 48.324 121.014 48.044C121.254 47.764 121.562 47.5 121.938 47.252C122.314 47.004 122.774 46.788 123.318 46.604C123.87 46.42 124.51 46.272 125.238 46.16C125.966 46.04 126.798 45.968 127.734 45.944V45.224C127.734 44.4 127.558 43.792 127.206 43.4C126.854 43 126.346 42.8 125.682 42.8C125.202 42.8 124.802 42.856 124.482 42.968C124.17 43.08 123.894 43.208 123.654 43.352C123.414 43.488 123.194 43.612 122.994 43.724C122.802 43.836 122.586 43.892 122.346 43.892C122.138 43.892 121.962 43.84 121.818 43.736C121.674 43.624 121.558 43.496 121.47 43.352L120.942 42.404ZM144.236 40.688L139.352 53H136.664L131.78 40.688H134.228C134.452 40.688 134.636 40.74 134.78 40.844C134.932 40.948 135.032 41.08 135.08 41.24L137.456 47.816C137.584 48.2 137.696 48.576 137.792 48.944C137.888 49.312 137.972 49.68 138.044 50.048C138.124 49.68 138.212 49.312 138.308 48.944C138.404 48.576 138.52 48.2 138.656 47.816L141.08 41.24C141.136 41.08 141.236 40.948 141.38 40.844C141.524 40.74 141.696 40.688 141.896 40.688H144.236ZM153.373 45.428C153.373 45.044 153.317 44.684 153.205 44.348C153.101 44.004 152.941 43.704 152.725 43.448C152.509 43.192 152.233 42.992 151.897 42.848C151.569 42.696 151.185 42.62 150.745 42.62C149.889 42.62 149.213 42.864 148.717 43.352C148.229 43.84 147.917 44.532 147.781 45.428H153.373ZM147.721 47.216C147.769 47.848 147.881 48.396 148.057 48.86C148.233 49.316 148.465 49.696 148.753 50C149.041 50.296 149.381 50.52 149.773 50.672C150.173 50.816 150.613 50.888 151.093 50.888C151.573 50.888 151.985 50.832 152.329 50.72C152.681 50.608 152.985 50.484 153.241 50.348C153.505 50.212 153.733 50.088 153.925 49.976C154.125 49.864 154.317 49.808 154.501 49.808C154.749 49.808 154.933 49.9 155.053 50.084L155.905 51.164C155.577 51.548 155.209 51.872 154.801 52.136C154.393 52.392 153.965 52.6 153.517 52.76C153.077 52.912 152.625 53.02 152.161 53.084C151.705 53.148 151.261 53.18 150.829 53.18C149.973 53.18 149.177 53.04 148.441 52.76C147.705 52.472 147.065 52.052 146.521 51.5C145.977 50.94 145.549 50.252 145.237 49.436C144.925 48.612 144.769 47.66 144.769 46.58C144.769 45.74 144.905 44.952 145.177 44.216C145.449 43.472 145.837 42.828 146.341 42.284C146.853 41.732 147.473 41.296 148.201 40.976C148.937 40.656 149.765 40.496 150.685 40.496C151.461 40.496 152.177 40.62 152.833 40.868C153.489 41.116 154.053 41.48 154.525 41.96C154.997 42.432 155.365 43.016 155.629 43.712C155.901 44.4 156.037 45.188 156.037 46.076C156.037 46.524 155.989 46.828 155.893 46.988C155.797 47.14 155.613 47.216 155.341 47.216H147.721ZM161.261 35.168V53H158.297V35.168H161.261Z" fill="white"/>
</svg>
