<svg width="120" height="21" viewBox="0 0 120 21" fill="none" xmlns="http://www.w3.org/2000/svg">
	<path d="M14.345 1.039V17H12.64C12.3833 17 12.167 16.9597 11.991 16.879C11.815 16.791 11.6427 16.6443 11.474 16.439L3.521 6.319C3.543 6.57567 3.55767 6.82867 3.565 7.078C3.57967 7.32733 3.587 7.55833 3.587 7.771V17H0.672V1.039H2.41C2.54933 1.039 2.66667 1.04633 2.762 1.061C2.86467 1.06833 2.95633 1.094 3.037 1.138C3.11767 1.17467 3.19467 1.226 3.268 1.292C3.34133 1.358 3.422 1.446 3.51 1.556L11.518 11.72C11.4887 11.4413 11.4667 11.1737 11.452 10.917C11.4373 10.653 11.43 10.4037 11.43 10.169V1.039H14.345ZM24.1199 9.993C24.1199 9.67767 24.0759 9.377 23.9879 9.091C23.9072 8.805 23.7752 8.552 23.5919 8.332C23.4085 8.112 23.1775 7.93967 22.8989 7.815C22.6202 7.683 22.2865 7.617 21.8979 7.617C21.1719 7.617 20.6035 7.82233 20.1929 8.233C19.7822 8.64367 19.5145 9.23033 19.3899 9.993H24.1199ZM19.3459 11.797C19.4412 12.8603 19.7419 13.6377 20.2479 14.129C20.7612 14.6203 21.4285 14.866 22.2499 14.866C22.6679 14.866 23.0272 14.8183 23.3279 14.723C23.6359 14.6203 23.9035 14.5103 24.1309 14.393C24.3655 14.2683 24.5745 14.1583 24.7579 14.063C24.9485 13.9603 25.1355 13.909 25.3189 13.909C25.5535 13.909 25.7369 13.997 25.8689 14.173L26.7489 15.273C26.4262 15.647 26.0705 15.9587 25.6819 16.208C25.2932 16.45 24.8899 16.6443 24.4719 16.791C24.0539 16.9303 23.6322 17.0257 23.2069 17.077C22.7815 17.1357 22.3709 17.165 21.9749 17.165C21.1829 17.165 20.4422 17.0367 19.7529 16.78C19.0709 16.516 18.4732 16.131 17.9599 15.625C17.4539 15.1117 17.0542 14.4773 16.7609 13.722C16.4675 12.9667 16.3209 12.0903 16.3209 11.093C16.3209 10.323 16.4455 9.597 16.6949 8.915C16.9515 8.233 17.3182 7.639 17.7949 7.133C18.2715 6.627 18.8509 6.22733 19.5329 5.934C20.2149 5.63333 20.9849 5.483 21.8429 5.483C22.5689 5.483 23.2362 5.60033 23.8449 5.835C24.4609 6.06233 24.9889 6.396 25.4289 6.836C25.8762 7.276 26.2209 7.81867 26.4629 8.464C26.7122 9.102 26.8369 9.83167 26.8369 10.653C26.8369 10.8803 26.8259 11.0673 26.8039 11.214C26.7819 11.3607 26.7452 11.478 26.6939 11.566C26.6425 11.654 26.5729 11.7163 26.4849 11.753C26.3969 11.7823 26.2832 11.797 26.1439 11.797H19.3459ZM39.0099 17H36.0949C35.8749 17 35.6953 16.945 35.5559 16.835C35.4239 16.725 35.3176 16.5967 35.2369 16.45L33.0039 12.721C32.9379 12.9703 32.8426 13.1903 32.7179 13.381L30.8039 16.45C30.7159 16.5893 30.6059 16.7177 30.4739 16.835C30.3493 16.945 30.1879 17 29.9899 17H27.2839L31.1339 11.148L27.4379 5.659H30.3529C30.5729 5.659 30.7343 5.68833 30.8369 5.747C30.9396 5.80567 31.0313 5.901 31.1119 6.033L33.3339 9.63C33.3706 9.50533 33.4183 9.38067 33.4769 9.256C33.5356 9.124 33.6053 8.99567 33.6859 8.871L35.3909 6.088C35.5669 5.802 35.7943 5.659 36.0729 5.659H38.8559L35.1599 11.016L39.0099 17ZM44.1739 17.176C43.6606 17.176 43.2059 17.1027 42.8099 16.956C42.4139 16.802 42.0802 16.5857 41.8089 16.307C41.5376 16.0283 41.3322 15.691 41.1929 15.295C41.0536 14.899 40.9839 14.4517 40.9839 13.953V7.837H39.9169C39.7556 7.837 39.6162 7.78567 39.4989 7.683C39.3889 7.58033 39.3339 7.42633 39.3339 7.221V6.033L41.1489 5.703L41.7649 2.766C41.8456 2.436 42.0692 2.271 42.4359 2.271H44.0199V5.725H46.9459V7.837H44.0199V13.755C44.0199 14.0703 44.0932 14.3197 44.2399 14.503C44.3939 14.6863 44.6102 14.778 44.8889 14.778C45.0356 14.778 45.1602 14.7633 45.2629 14.734C45.3656 14.6973 45.4536 14.6607 45.5269 14.624C45.6002 14.58 45.6662 14.5433 45.7249 14.514C45.7909 14.4773 45.8569 14.459 45.9229 14.459C46.0109 14.459 46.0842 14.481 46.1429 14.525C46.2016 14.5617 46.2602 14.6277 46.3189 14.723L47.2319 16.175C46.8139 16.505 46.3409 16.7543 45.8129 16.923C45.2849 17.0917 44.7386 17.176 44.1739 17.176ZM48.1434 15.405C48.1434 15.163 48.1874 14.9357 48.2754 14.723C48.3707 14.503 48.499 14.316 48.6604 14.162C48.8217 14.0007 49.0087 13.876 49.2214 13.788C49.4414 13.6927 49.6797 13.645 49.9364 13.645C50.1857 13.645 50.4204 13.6927 50.6404 13.788C50.8604 13.876 51.051 14.0007 51.2124 14.162C51.3737 14.316 51.4984 14.503 51.5864 14.723C51.6817 14.9357 51.7294 15.163 51.7294 15.405C51.7294 15.6543 51.6817 15.8853 51.5864 16.098C51.4984 16.3107 51.3737 16.4977 51.2124 16.659C51.051 16.813 50.8604 16.934 50.6404 17.022C50.4204 17.11 50.1857 17.154 49.9364 17.154C49.6797 17.154 49.4414 17.11 49.2214 17.022C49.0087 16.934 48.8217 16.813 48.6604 16.659C48.499 16.4977 48.3707 16.3107 48.2754 16.098C48.1874 15.8853 48.1434 15.6543 48.1434 15.405ZM56.9385 5.659V17.22C56.9385 17.7333 56.8725 18.2137 56.7405 18.661C56.6085 19.1157 56.3922 19.5117 56.0915 19.849C55.7982 20.1863 55.4095 20.454 54.9255 20.652C54.4489 20.85 53.8585 20.949 53.1545 20.949C52.8905 20.949 52.6449 20.9307 52.4175 20.894C52.1829 20.8573 51.9445 20.806 51.7025 20.74L51.8125 19.134C51.8272 18.9873 51.8822 18.8847 51.9775 18.826C52.0655 18.7673 52.2452 18.738 52.5165 18.738C52.7879 18.738 53.0115 18.7123 53.1875 18.661C53.3635 18.617 53.5029 18.5363 53.6055 18.419C53.7155 18.3017 53.7925 18.144 53.8365 17.946C53.8805 17.7553 53.9025 17.5133 53.9025 17.22V5.659H56.9385ZM57.3015 2.436C57.3015 2.69267 57.2502 2.931 57.1475 3.151C57.0449 3.371 56.9055 3.56533 56.7295 3.734C56.5609 3.90267 56.3592 4.03467 56.1245 4.13C55.8972 4.22533 55.6515 4.273 55.3875 4.273C55.1382 4.273 54.8999 4.22533 54.6725 4.13C54.4525 4.03467 54.2582 3.90267 54.0895 3.734C53.9209 3.56533 53.7852 3.371 53.6825 3.151C53.5872 2.931 53.5395 2.69267 53.5395 2.436C53.5395 2.17933 53.5872 1.941 53.6825 1.721C53.7852 1.49367 53.9209 1.29567 54.0895 1.127C54.2582 0.958332 54.4525 0.826332 54.6725 0.730999C54.8999 0.635666 55.1382 0.587999 55.3875 0.587999C55.6515 0.587999 55.8972 0.635666 56.1245 0.730999C56.3592 0.826332 56.5609 0.958332 56.7295 1.127C56.9055 1.29567 57.0449 1.49367 57.1475 1.721C57.2502 1.941 57.3015 2.17933 57.3015 2.436ZM66.5804 7.991C66.4997 8.11567 66.4154 8.20733 66.3274 8.266C66.2467 8.31733 66.1331 8.343 65.9864 8.343C65.8397 8.343 65.6894 8.30633 65.5354 8.233C65.3814 8.15967 65.2091 8.08267 65.0184 8.002C64.8277 7.914 64.6077 7.83333 64.3584 7.76C64.1164 7.68667 63.8341 7.65 63.5114 7.65C63.0201 7.65 62.6387 7.75267 62.3674 7.958C62.0961 8.156 61.9604 8.42 61.9604 8.75C61.9604 8.97733 62.0374 9.168 62.1914 9.322C62.3454 9.476 62.5471 9.61167 62.7964 9.729C63.0531 9.839 63.3427 9.94533 63.6654 10.048C63.9881 10.1433 64.3181 10.2497 64.6554 10.367C65.0001 10.4843 65.3337 10.62 65.6564 10.774C65.9791 10.928 66.2651 11.1223 66.5144 11.357C66.7711 11.5843 66.9764 11.863 67.1304 12.193C67.2844 12.5157 67.3614 12.908 67.3614 13.37C67.3614 13.92 67.2587 14.4297 67.0534 14.899C66.8554 15.361 66.5621 15.7607 66.1734 16.098C65.7847 16.4353 65.3007 16.6993 64.7214 16.89C64.1421 17.0807 63.4747 17.176 62.7194 17.176C62.3307 17.176 61.9457 17.1393 61.5644 17.066C61.1831 17 60.8201 16.9047 60.4754 16.78C60.1307 16.648 59.8081 16.4977 59.5074 16.329C59.2067 16.1603 58.9464 15.977 58.7264 15.779L59.4304 14.646C59.5111 14.514 59.6101 14.4113 59.7274 14.338C59.8521 14.2647 60.0097 14.228 60.2004 14.228C60.3837 14.228 60.5524 14.2757 60.7064 14.371C60.8604 14.459 61.0327 14.558 61.2234 14.668C61.4141 14.7707 61.6377 14.8697 61.8944 14.965C62.1584 15.053 62.4847 15.097 62.8734 15.097C63.1667 15.097 63.4197 15.064 63.6324 14.998C63.8451 14.932 64.0174 14.844 64.1494 14.734C64.2814 14.6167 64.3767 14.4883 64.4354 14.349C64.5014 14.2023 64.5344 14.052 64.5344 13.898C64.5344 13.6487 64.4537 13.447 64.2924 13.293C64.1384 13.1317 63.9331 12.9923 63.6764 12.875C63.4271 12.7577 63.1374 12.6513 62.8074 12.556C62.4774 12.4607 62.1401 12.3543 61.7954 12.237C61.4581 12.1197 61.1244 11.9803 60.7944 11.819C60.4717 11.6577 60.1821 11.456 59.9254 11.214C59.6761 10.9647 59.4707 10.6603 59.3094 10.301C59.1554 9.94167 59.0784 9.50533 59.0784 8.992C59.0784 8.52267 59.1701 8.079 59.3534 7.661C59.5367 7.23567 59.8117 6.86167 60.1784 6.539C60.5451 6.21633 60.9997 5.95967 61.5424 5.769C62.0924 5.57833 62.7267 5.483 63.4454 5.483C64.2521 5.483 64.9854 5.615 65.6454 5.879C66.3054 6.143 66.8481 6.48767 67.2734 6.913L66.5804 7.991Z" fill="#fff" />
	<path d="M84.2615 14.844V17H75.1095V1.16H77.6835V14.844H84.2615ZM90.1983 5.604C91.0269 5.604 91.7749 5.73967 92.4423 6.011C93.1169 6.28233 93.6889 6.66733 94.1583 7.166C94.6349 7.66467 95.0016 8.26967 95.2583 8.981C95.5149 9.69233 95.6433 10.4917 95.6433 11.379C95.6433 12.2663 95.5149 13.0657 95.2583 13.777C95.0016 14.4883 94.6349 15.097 94.1583 15.603C93.6889 16.1017 93.1169 16.4867 92.4423 16.758C91.7749 17.0293 91.0269 17.165 90.1983 17.165C89.3623 17.165 88.6069 17.0293 87.9323 16.758C87.2649 16.4867 86.6929 16.1017 86.2163 15.603C85.7396 15.097 85.3729 14.4883 85.1163 13.777C84.8596 13.0657 84.7313 12.2663 84.7313 11.379C84.7313 10.4917 84.8596 9.69233 85.1163 8.981C85.3729 8.26967 85.7396 7.66467 86.2163 7.166C86.6929 6.66733 87.2649 6.28233 87.9323 6.011C88.6069 5.73967 89.3623 5.604 90.1983 5.604ZM90.1983 15.317C91.2103 15.317 91.9619 14.9797 92.4533 14.305C92.9519 13.623 93.2013 12.6513 93.2013 11.39C93.2013 10.1287 92.9519 9.157 92.4533 8.475C91.9619 7.78567 91.2103 7.441 90.1983 7.441C89.1716 7.441 88.4089 7.78567 87.9103 8.475C87.4116 9.157 87.1623 10.1287 87.1623 11.39C87.1623 12.6513 87.4116 13.623 87.9103 14.305C88.4089 14.9797 89.1716 15.317 90.1983 15.317ZM101.834 11.291C102.567 11.291 103.117 11.104 103.484 10.73C103.85 10.356 104.034 9.86833 104.034 9.267C104.034 8.651 103.85 8.16333 103.484 7.804C103.117 7.44467 102.567 7.265 101.834 7.265C101.108 7.265 100.558 7.44467 100.184 7.804C99.817 8.16333 99.6337 8.651 99.6337 9.267C99.6337 9.56033 99.6813 9.83167 99.7767 10.081C99.872 10.3303 100.011 10.5467 100.195 10.73C100.378 10.906 100.605 11.0453 100.877 11.148C101.155 11.2433 101.474 11.291 101.834 11.291ZM105.123 17.55C105.123 17.3007 105.049 17.1027 104.903 16.956C104.763 16.802 104.573 16.6847 104.331 16.604C104.089 16.516 103.806 16.4537 103.484 16.417C103.161 16.373 102.816 16.3437 102.45 16.329C102.09 16.307 101.72 16.2887 101.339 16.274C100.965 16.252 100.602 16.2153 100.25 16.164C99.8977 16.3473 99.608 16.5673 99.3807 16.824C99.1607 17.0807 99.0507 17.3777 99.0507 17.715C99.0507 17.935 99.1057 18.1403 99.2157 18.331C99.333 18.5217 99.509 18.6867 99.7437 18.826C99.9857 18.9653 100.29 19.0753 100.657 19.156C101.031 19.2367 101.478 19.277 101.999 19.277C103.04 19.277 103.821 19.1157 104.342 18.793C104.862 18.4703 105.123 18.056 105.123 17.55ZM107.499 6.187V7.067C107.499 7.36033 107.323 7.54 106.971 7.606L105.849 7.793C106.039 8.21833 106.135 8.69133 106.135 9.212C106.135 9.762 106.025 10.2607 105.805 10.708C105.592 11.1553 105.295 11.5367 104.914 11.852C104.532 12.1673 104.078 12.4093 103.55 12.578C103.022 12.7467 102.45 12.831 101.834 12.831C101.599 12.831 101.368 12.82 101.141 12.798C100.921 12.7687 100.704 12.732 100.492 12.688C100.279 12.8127 100.121 12.9447 100.019 13.084C99.916 13.2233 99.8647 13.3663 99.8647 13.513C99.8647 13.755 99.971 13.9347 100.184 14.052C100.396 14.1693 100.675 14.2537 101.02 14.305C101.372 14.3563 101.771 14.3893 102.219 14.404C102.666 14.4187 103.121 14.4443 103.583 14.481C104.045 14.5177 104.499 14.58 104.947 14.668C105.394 14.7487 105.79 14.888 106.135 15.086C106.487 15.2767 106.769 15.537 106.982 15.867C107.194 16.197 107.301 16.626 107.301 17.154C107.301 17.638 107.18 18.111 106.938 18.573C106.696 19.035 106.344 19.4457 105.882 19.805C105.427 20.1643 104.87 20.4503 104.21 20.663C103.55 20.883 102.798 20.993 101.955 20.993C101.119 20.993 100.389 20.9123 99.7657 20.751C99.1497 20.5897 98.6327 20.3697 98.2147 20.091C97.804 19.8197 97.496 19.5043 97.2907 19.145C97.0927 18.7857 96.9937 18.4117 96.9937 18.023C96.9937 17.495 97.1587 17.044 97.4887 16.67C97.826 16.296 98.2807 16.0027 98.8527 15.79C98.5447 15.6433 98.2953 15.4417 98.1047 15.185C97.9213 14.9283 97.8297 14.591 97.8297 14.173C97.8297 13.843 97.9507 13.4983 98.1927 13.139C98.4347 12.7797 98.7977 12.4753 99.2817 12.226C98.7243 11.918 98.2843 11.511 97.9617 11.005C97.639 10.4917 97.4777 9.894 97.4777 9.212C97.4777 8.65467 97.584 8.15233 97.7967 7.705C98.0167 7.25767 98.321 6.87633 98.7097 6.561C99.0983 6.24567 99.5567 6.00367 100.085 5.835C100.62 5.66633 101.203 5.582 101.834 5.582C102.802 5.582 103.645 5.78367 104.364 6.187H107.499ZM114.024 5.604C114.853 5.604 115.601 5.73967 116.268 6.011C116.943 6.28233 117.515 6.66733 117.984 7.166C118.461 7.66467 118.828 8.26967 119.084 8.981C119.341 9.69233 119.469 10.4917 119.469 11.379C119.469 12.2663 119.341 13.0657 119.084 13.777C118.828 14.4883 118.461 15.097 117.984 15.603C117.515 16.1017 116.943 16.4867 116.268 16.758C115.601 17.0293 114.853 17.165 114.024 17.165C113.188 17.165 112.433 17.0293 111.758 16.758C111.091 16.4867 110.519 16.1017 110.042 15.603C109.566 15.097 109.199 14.4883 108.942 13.777C108.686 13.0657 108.557 12.2663 108.557 11.379C108.557 10.4917 108.686 9.69233 108.942 8.981C109.199 8.26967 109.566 7.66467 110.042 7.166C110.519 6.66733 111.091 6.28233 111.758 6.011C112.433 5.73967 113.188 5.604 114.024 5.604ZM114.024 15.317C115.036 15.317 115.788 14.9797 116.279 14.305C116.778 13.623 117.027 12.6513 117.027 11.39C117.027 10.1287 116.778 9.157 116.279 8.475C115.788 7.78567 115.036 7.441 114.024 7.441C112.998 7.441 112.235 7.78567 111.736 8.475C111.238 9.157 110.988 10.1287 110.988 11.39C110.988 12.6513 111.238 13.623 111.736 14.305C112.235 14.9797 112.998 15.317 114.024 15.317Z" fill="#646669" />
</svg>
